<svg width="24" height="24" fill="none" xmlns="http://www.w3.org/2000/svg"><path d="M10.34 2.024c-.908.094-1.475.209-2.18.442A8.983 8.983 0 0 0 2.92 7.06c-.64 1.319-.897 2.447-.897 3.94 0 1.493.257 2.621.897 3.94 1.299 2.679 3.802 4.507 6.8 4.966.632.097 1.925.097 2.56.001a9.888 9.888 0 0 0 1.785-.448c.82-.303 1.833-.855 2.369-1.289l.173-.141 1.927 1.921c1.261 1.258 1.984 1.95 2.094 2.006.352.176.733.085 1.073-.255.34-.34.431-.721.255-1.073-.056-.11-.748-.833-2.006-2.094l-1.921-1.927.141-.173c.629-.776 1.274-2.118 1.551-3.229.197-.792.256-1.297.256-2.205 0-.579-.021-.955-.07-1.28-.605-3.97-3.646-7.024-7.587-7.619-.409-.062-1.658-.11-1.98-.077m1.528 2.038c3.14.411 5.548 2.764 6.058 5.918.028.176.051.635.051 1.02s-.023.844-.051 1.02c-.5 3.092-2.814 5.406-5.906 5.906-.413.066-1.627.066-2.04 0-1.533-.248-2.851-.915-3.921-1.985a6.97 6.97 0 0 1 0-9.882 6.952 6.952 0 0 1 5.809-1.997" fill-rule="evenodd" fill="#000"/></svg>