<svg width="15" height="8" fill="none" xmlns="http://www.w3.org/2000/svg"><path d="M1.075.079a1.605 1.605 0 0 0-.532.569.615.615 0 0 0-.08.352.64.64 0 0 0 .084.363c.08.165.249.339 3.237 3.328C6.187 7.095 6.97 7.864 7.075 7.922c.131.074.15.078.425.078s.294-.004.425-.078c.105-.059.886-.826 3.289-3.231 2.957-2.958 3.157-3.164 3.238-3.327A.626.626 0 0 0 14.538 1a.599.599 0 0 0-.085-.357 1.6 1.6 0 0 0-.528-.564C13.793.003 13.776 0 13.5 0c-.275 0-.293.004-.425.078-.104.058-.802.741-2.856 2.793L7.5 5.587 4.781 2.871C2.727.819 2.029.136 1.925.078 1.793.004 1.775 0 1.5 0c-.276 0-.293.003-.425.079" fill-rule="evenodd" fill="#000"/></svg>